<svg xmlns="http://www.w3.org/2000/svg" viewBox="0 0 875 327" width="875" height="327">
	<style>
		tspan { white-space:pre }
		.shp0 { fill: #ffffff } 
		.shp1 { fill: #1bc4a9 } 
		.shp2 { fill: #17202b } 
		.shp3 { fill: #889ea8 } 
	</style>
	<g id="Layer">
		<path id="Layer" fill-rule="evenodd" class="shp0" d="M390.1 138.88L387.46 151.6L386.14 152.2C382.06 149.96 378.42 148.84 375.22 148.84C371.54 148.84 368.7 150.16 366.7 152.8C364.7 155.44 363.7 159.2 363.7 164.08C363.7 169.68 364.78 173.96 366.94 176.92C369.1 179.88 372.18 181.36 376.18 181.36C379.78 181.36 383.78 180.36 388.18 178.36L389.38 179.32L387.82 191.68C383.02 193.2 378.1 193.96 373.06 193.96C365.38 193.96 359.38 191.46 355.06 186.46C350.74 181.46 348.58 174.48 348.58 165.52C348.58 156.24 350.94 148.98 355.66 143.74C360.38 138.5 366.94 135.88 375.34 135.88C380.94 135.88 385.86 136.88 390.1 138.88ZM429.76 151.42C428.44 149.86 426.54 149.08 424.06 149.08C420.46 149.08 416.66 150.76 412.66 154.12L412.42 168.16L413.26 192.76L397.3 192.76L398.14 169.6L397.42 109.72L413.38 108.52L412.78 144.88L413.5 144.88C417.9 140.88 422.7 138 427.9 136.24C433.98 136.24 438.62 137.62 441.82 140.38C445.02 143.14 446.54 147.12 446.38 152.32L446.02 168.28L446.74 192.76L430.66 192.76L431.62 157.96C431.7 155.16 431.08 152.98 429.76 151.42ZM470.26 166.96C470.9 177.04 475.86 182.08 485.14 182.08C490.34 182.08 495.7 180.64 501.22 177.76L502.54 178.6L500.38 190.36C494.78 192.76 489.18 193.96 483.58 193.96C474.7 193.96 467.8 191.4 462.88 186.28C457.96 181.16 455.5 174.12 455.5 165.16C455.5 156.12 457.98 149 462.94 143.8C467.9 138.6 474.62 136 483.1 136C490.06 136 495.42 137.94 499.18 141.82C502.94 145.7 504.82 151.08 504.82 157.96C504.82 160.12 504.66 162.32 504.34 164.56L502.06 166.84L470.26 166.96ZM482.5 146.44C479.38 146.44 476.8 147.46 474.76 149.5C472.72 151.54 471.34 154.44 470.62 158.2L490.78 157.6L491.02 156.16C491.02 149.68 488.18 146.44 482.5 146.44ZM552.1 138.88L549.46 151.6L548.14 152.2C544.06 149.96 540.42 148.84 537.22 148.84C533.54 148.84 530.7 150.16 528.7 152.8C526.7 155.44 525.7 159.2 525.7 164.08C525.7 169.68 526.78 173.96 528.94 176.92C531.1 179.88 534.18 181.36 538.18 181.36C541.78 181.36 545.78 180.36 550.18 178.36L551.38 179.32L549.82 191.68C545.02 193.2 540.1 193.96 535.06 193.96C527.38 193.96 521.38 191.46 517.06 186.46C512.74 181.46 510.58 174.48 510.58 165.52C510.58 156.24 512.94 148.98 517.66 143.74C522.38 138.5 528.94 135.88 537.34 135.88C542.94 135.88 547.86 136.88 552.1 138.88ZM575.26 192.76L559.3 192.76L560.14 169.6L559.42 109.72L575.38 108.52L574.42 168.16L575.26 192.76ZM610.06 190.12L610.06 191.8C607.34 192.36 602.38 193.08 595.18 193.96L593.5 193.24C586.06 182.68 579.98 172.8 575.26 163.6L575.26 162.52L589.18 142.72L592.06 136.96L608.86 136.96L590.62 162.16C594.62 168.48 601.1 177.8 610.06 190.12Z" />
		<path id="Layer" class="shp1" d="M631.36 111.76C632.76 113.2 633.46 115.2 633.46 117.76C633.46 120.48 632.7 122.64 631.18 124.24C629.66 125.84 627.58 126.64 624.94 126.64C622.3 126.64 620.28 125.92 618.88 124.48C617.48 123.04 616.78 121 616.78 118.36C616.78 115.72 617.56 113.6 619.12 112C620.68 110.4 622.82 109.6 625.54 109.6C628.02 109.6 629.96 110.32 631.36 111.76ZM632.86 192.76L616.9 192.76L617.74 169.72L617.02 138.04L632.98 136.72L632.02 168.16L632.86 192.76ZM676.9 178.96L678.22 180.16L676.66 189.64C672.58 191.72 668.42 193 664.18 193.48C653.38 192.36 647.98 187.08 647.98 177.64L648.58 167.68L648.46 147.04L641.02 147.04L640.42 146.2L641.26 137.44L648.34 137.44L648.34 128.2L662.86 123.52L663.94 124.48L663.58 137.44L677.86 137.44L678.34 138.28L677.62 147.04L663.34 147.04L662.62 173.92C662.62 176.48 663.1 178.3 664.06 179.38C665.02 180.46 666.62 181 668.86 181C671.42 181 674.1 180.32 676.9 178.96Z" />
		<path id="Layer" fill-rule="evenodd" class="shp0" d="M726.34 143.08C730.66 147.88 732.82 154.8 732.82 163.84C732.82 173.6 730.5 181.06 725.86 186.22C721.22 191.38 714.54 193.96 705.82 193.96C697.66 193.96 691.42 191.56 687.1 186.76C682.78 181.96 680.62 175.04 680.62 166C680.62 156.24 682.94 148.78 687.58 143.62C692.22 138.46 698.9 135.88 707.62 135.88C715.78 135.88 722.02 138.28 726.34 143.08ZM698.2 150.52C696.48 153.08 695.62 157.2 695.62 162.88C695.62 170.24 696.5 175.48 698.26 178.6C700.02 181.72 702.9 183.28 706.9 183.28C710.74 183.28 713.52 182.02 715.24 179.5C716.96 176.98 717.82 172.84 717.82 167.08C717.82 159.8 716.92 154.58 715.12 151.42C713.32 148.26 710.46 146.68 706.54 146.68C702.7 146.68 699.92 147.96 698.2 150.52ZM789.46 181.06C789.86 181.58 790.58 181.84 791.62 181.84C792.42 181.84 793.46 181.68 794.74 181.36L795.94 182.32L794.5 190.72C791.94 192.4 789.02 193.4 785.74 193.72C780.7 193.24 777.5 190.24 776.14 184.72L774.94 184.72C770.38 189.12 765.7 192.04 760.9 193.48C754.9 193.48 750.3 192.1 747.1 189.34C743.9 186.58 742.3 182.6 742.3 177.4L742.66 163.24L742.06 138.04L757.54 136.72L757.06 172.12C757.06 177.8 759.46 180.64 764.26 180.64C767.62 180.64 771.1 179.08 774.7 175.96L774.7 138.04L789.82 136.72L788.86 178.24C788.86 179.6 789.06 180.54 789.46 181.06ZM834.58 178.96L835.9 180.16L834.34 189.64C830.26 191.72 826.1 193 821.86 193.48C811.06 192.36 805.66 187.08 805.66 177.64L806.26 167.68L806.14 147.04L798.7 147.04L798.1 146.2L798.94 137.44L806.02 137.44L806.02 128.2L820.54 123.52L821.62 124.48L821.26 137.44L835.54 137.44L836.02 138.28L835.3 147.04L821.02 147.04L820.3 173.92C820.3 176.48 820.78 178.3 821.74 179.38C822.7 180.46 824.3 181 826.54 181C829.1 181 831.78 180.32 834.58 178.96Z" />
	</g>
	<g id="Layer">
		<path id="Layer" class="shp1" d="M190.88 164.8C190.88 149.36 178.36 136.84 162.93 136.84C147.49 136.84 134.98 149.36 134.98 164.8C134.98 180.24 147.49 192.76 162.93 192.76C178.36 192.76 190.88 180.24 190.88 164.8Z" />
	</g>
	<g id="Layer">
		<path id="Layer" class="shp2" d="M162.93 28.21C206.65 28.21 245.56 48.79 270.55 80.75L192.88 120.93C184.35 115.09 174.04 111.67 162.93 111.67C133.58 111.67 109.79 135.45 109.79 164.8C109.79 194.15 133.58 217.94 162.93 217.94C166.7 217.94 170.38 217.53 173.94 216.78L251.44 268.79C227.59 289.11 196.7 301.4 162.93 301.4C87.49 301.4 26.34 240.24 26.34 164.8C26.34 89.36 87.49 28.21 162.93 28.21Z" />
	</g>
	<g id="Layer">
		<path id="Layer" fill-rule="evenodd" class="shp0" d="M205.96 132.22L240.25 114.73L264.32 175.72L245.02 178.54C245.02 178.54 266.82 230.08 237.52 236.9L190.88 208.74C190.88 208.74 230.48 183.76 205.96 132.22ZM234 165.37C238.96 165.37 242.97 161.35 242.97 156.4C242.97 151.45 238.96 147.43 234 147.43C229.05 147.43 225.03 151.45 225.03 156.4C225.03 161.35 229.05 165.37 234 165.37Z" />
	</g>
	<g id="Layer">
		<path id="Layer" class="shp3" d="M263.63 252.25C285.12 228.12 298.17 196.32 298.17 161.47C298.17 136.1 291.25 112.34 279.2 91.98L264.39 99.09C264.65 99.49 264.89 99.9 265.13 100.31C276.05 118.75 281.82 139.91 281.82 161.47C281.82 191.01 271.02 219.38 251.4 241.41C250.55 242.3 249.31 243.67 248.44 244.51L261.8 254.29C262.14 253.95 262.69 253.3 263.15 252.78L263.16 252.79C263.26 252.67 263.36 252.55 263.47 252.44C263.52 252.38 263.59 252.3 263.64 252.25L263.63 252.25Z" />
	</g>
</svg>