<?xml version="1.0" encoding="utf-8"?>
<!-- Generator: Adobe Illustrator 16.0.0, SVG Export Plug-In . SVG Version: 6.00 Build 0)  -->
<!DOCTYPE svg PUBLIC "-//W3C//DTD SVG 1.1//EN" "http://www.w3.org/Graphics/SVG/1.1/DTD/svg11.dtd">
<svg version="1.1" id="Layer_1" xmlns="http://www.w3.org/2000/svg" xmlns:xlink="http://www.w3.org/1999/xlink" x="0px" y="0px"
	 width="323.141px" height="326.446px" viewBox="0 0 323.141 326.446" enable-background="new 0 0 323.141 326.446"
	 xml:space="preserve">
<g>
	<path fill="#EEC900" d="M190.878,164.796c0-15.434-12.519-27.951-27.951-27.951c-15.438,0-27.95,12.518-27.95,27.951
		c0,15.446,12.512,27.962,27.95,27.962C178.359,192.758,190.878,180.243,190.878,164.796z"/>
</g>
<g>
	<path fill="#7C4350" d="M162.927,28.211c43.725,0,82.628,20.579,107.626,52.544l-77.669,40.175
		c-8.53-5.836-18.84-9.264-29.957-9.264c-29.344,0-53.14,23.789-53.14,53.135c0,29.347,23.796,53.141,53.14,53.141
		c3.77,0,7.455-0.41,11.009-1.159l77.5,52.01c-23.843,20.314-54.735,32.603-88.509,32.603c-75.437,0-136.592-61.153-136.592-136.594
		C26.335,89.365,87.49,28.211,162.927,28.211z"/>
</g>
<g>
	<path fill="#231F20" d="M190.878,208.742l46.646,28.158c29.294-6.818,7.493-58.36,7.493-58.36l19.299-2.819l-24.069-60.995
		l-34.288,17.49C230.481,183.761,190.878,208.742,190.878,208.742z M225.031,156.4c0-4.954,4.019-8.967,8.97-8.967
		c4.955,0,8.969,4.013,8.969,8.967c0,4.95-4.014,8.967-8.969,8.967C229.05,165.367,225.031,161.35,225.031,156.4z"/>
</g>
<g>
	<path fill="#889EA8" d="M263.633,252.253c21.487-24.13,34.542-55.931,34.542-90.78c0-25.376-6.924-49.131-18.971-69.49
		l-14.813,7.107c0.256,0.402,0.498,0.812,0.738,1.221c10.924,18.441,16.692,39.595,16.692,61.162
		c0,29.542-10.804,57.907-30.416,79.935c-0.857,0.89-2.099,2.262-2.968,3.104l13.362,9.777c0.342-0.341,0.896-0.985,1.355-1.505
		l0.006,0.005c0.104-0.116,0.205-0.234,0.309-0.351c0.055-0.06,0.12-0.134,0.167-0.183L263.633,252.253z"/>
</g>
</svg>
