<?xml version="1.0" standalone="no"?>
<!DOCTYPE svg PUBLIC "-//W3C//DTD SVG 20010904//EN"
 "http://www.w3.org/TR/2001/REC-SVG-20010904/DTD/svg10.dtd">
<svg version="1.0" xmlns="http://www.w3.org/2000/svg"
 width="652.000000pt" height="652.000000pt" viewBox="0 0 652.000000 652.000000"
 preserveAspectRatio="xMidYMid meet">
<metadata>
Created by potrace 1.11, written by Peter Selinger 2001-2013
</metadata>
<g transform="translate(0.000000,652.000000) scale(0.100000,-0.100000)"
fill="#000000" stroke="none">
<path d="M3075 5954 c-16 -2 -73 -9 -125 -15 -465 -53 -918 -237 -1320 -537
-149 -111 -408 -370 -522 -523 -289 -385 -465 -810 -534 -1294 -26 -182 -24
-554 4 -740 92 -604 354 -1125 778 -1549 448 -448 1021 -720 1659 -786 129
-14 421 -14 550 0 513 54 991 246 1402 564 51 39 92 73 93 76 0 3 -348 239
-774 524 l-774 518 -115 -11 c-674 -70 -1241 506 -1157 1175 57 460 400 824
856 910 119 22 346 15 454 -15 93 -25 185 -64 271 -113 l66 -38 772 399 c424
219 774 401 778 404 16 17 -234 283 -392 416 -490 416 -1125 645 -1770 639
-93 0 -183 -3 -200 -4z"/>
<path d="M5461 4615 c-74 -36 -137 -68 -140 -71 -3 -3 22 -58 56 -122 201
-383 294 -782 279 -1197 -7 -200 -24 -330 -70 -515 -91 -365 -277 -721 -523
-997 -36 -40 -62 -77 -59 -82 4 -5 63 -51 133 -102 l127 -92 44 49 c347 389
571 870 659 1419 26 159 26 624 0 780 -40 243 -104 471 -183 660 -57 135 -159
330 -175 332 -8 2 -75 -27 -148 -62z"/>
<path d="M4480 4056 c-184 -95 -334 -177 -333 -182 1 -5 18 -47 37 -94 149
-364 154 -708 12 -1003 -59 -123 -141 -232 -256 -340 -55 -51 -90 -91 -84 -96
5 -5 215 -133 467 -285 l457 -276 54 21 c280 104 331 482 142 1038 -20 58 -34
106 -32 108 2 2 84 15 182 30 99 14 182 28 186 32 4 3 -39 123 -96 266 -57
143 -165 416 -240 608 -76 191 -143 347 -149 346 -7 0 -163 -78 -347 -173z
m287 -497 c64 -24 113 -95 113 -163 0 -99 -73 -169 -177 -169 -176 0 -230 251
-69 324 46 21 92 24 133 8z"/>
<path d="M3171 3775 c-246 -54 -423 -258 -438 -507 -7 -109 8 -192 52 -283
174 -362 672 -423 930 -115 90 107 128 213 128 355 1 164 -50 285 -167 400
-139 137 -319 190 -505 150z"/>
</g>
</svg>
