<?xml version="1.0" encoding="utf-8"?>
<!-- Generator: Adobe Illustrator 16.0.0, SVG Export Plug-In . SVG Version: 6.00 Build 0)  -->
<!DOCTYPE svg PUBLIC "-//W3C//DTD SVG 1.1//EN" "http://www.w3.org/Graphics/SVG/1.1/DTD/svg11.dtd">
<svg version="1.1" id="Layer_1" xmlns="http://www.w3.org/2000/svg" xmlns:xlink="http://www.w3.org/1999/xlink" x="0px" y="0px"
	 width="874.38px" height="326.446px" viewBox="0 0 874.38 326.446" enable-background="new 0 0 874.38 326.446"
	 xml:space="preserve">
<g>
	<path fill="#231F20" d="M390.103,138.878l-2.64,12.72l-1.32,0.6c-4.08-2.239-7.721-3.36-10.92-3.36c-3.681,0-6.521,1.32-8.52,3.96
		c-2,2.64-3,6.401-3,11.28c0,5.601,1.08,9.881,3.24,12.84c2.16,2.96,5.239,4.44,9.24,4.44c3.6,0,7.599-1,12-3l1.2,0.959l-1.56,12.36
		c-4.8,1.519-9.72,2.28-14.76,2.28c-7.68,0-13.68-2.5-18-7.5c-4.32-4.999-6.48-11.979-6.48-20.94c0-9.279,2.359-16.539,7.08-21.78
		c4.719-5.239,11.28-7.86,19.68-7.86C380.942,135.878,385.862,136.879,390.103,138.878z"/>
	<path fill="#231F20" d="M429.763,151.418c-1.32-1.56-3.221-2.34-5.7-2.34c-3.6,0-7.401,1.68-11.4,5.04l-0.24,14.04l0.84,24.601
		h-15.96l0.84-23.16l-0.72-59.88l15.96-1.2l-0.6,36.36h0.72c4.399-4,9.199-6.879,14.4-8.64c6.079,0,10.719,1.38,13.92,4.14
		c3.199,2.76,4.72,6.741,4.56,11.94l-0.36,15.96l0.72,24.479h-16.08l0.96-34.8C431.702,155.159,431.083,152.979,429.763,151.418z"/>
	<path fill="#231F20" d="M470.263,166.958c0.64,10.08,5.599,15.119,14.88,15.119c5.199,0,10.56-1.439,16.08-4.319l1.319,0.84
		l-2.159,11.761c-5.601,2.399-11.201,3.6-16.801,3.6c-8.88,0-15.78-2.56-20.7-7.68c-4.92-5.119-7.379-12.16-7.379-21.121
		c0-9.039,2.479-16.159,7.44-21.36c4.959-5.199,11.68-7.8,20.16-7.8c6.96,0,12.318,1.94,16.08,5.82
		c3.759,3.881,5.64,9.261,5.64,16.14c0,2.16-0.161,4.361-0.479,6.6l-2.28,2.28L470.263,166.958z M482.503,146.438
		c-3.12,0-5.7,1.02-7.74,3.06c-2.04,2.04-3.42,4.94-4.14,8.7l20.159-0.6l0.24-1.44C491.022,149.678,488.182,146.438,482.503,146.438
		z"/>
	<path fill="#231F20" d="M552.102,138.878l-2.64,12.72l-1.32,0.6c-4.08-2.239-7.722-3.36-10.92-3.36c-3.681,0-6.521,1.32-8.521,3.96
		c-2,2.64-3,6.401-3,11.28c0,5.601,1.08,9.881,3.24,12.84c2.16,2.96,5.239,4.44,9.24,4.44c3.6,0,7.6-1,12-3l1.2,0.959l-1.561,12.36
		c-4.8,1.519-9.72,2.28-14.76,2.28c-7.68,0-13.68-2.5-18-7.5c-4.32-4.999-6.479-11.979-6.479-20.94
		c0-9.279,2.358-16.539,7.079-21.78c4.72-5.239,11.28-7.86,19.681-7.86C542.94,135.878,547.86,136.879,552.102,138.878z"/>
	<path fill="#231F20" d="M575.262,192.758h-15.96l0.84-23.16l-0.72-59.88l15.96-1.2l-0.96,59.64L575.262,192.758z M610.062,190.119
		v1.68c-2.72,0.561-7.68,1.279-14.88,2.16l-1.68-0.721c-7.44-10.56-13.521-20.439-18.24-29.64v-1.08l13.92-19.8l2.88-5.76h16.801
		l-18.24,25.2C594.621,168.479,601.102,177.799,610.062,190.119z"/>
	<path fill="#889EA8" d="M631.362,111.758c1.398,1.44,2.1,3.44,2.1,6c0,2.721-0.761,4.881-2.279,6.48
		c-1.521,1.601-3.601,2.4-6.24,2.4c-2.641,0-4.661-0.72-6.061-2.16c-1.4-1.44-2.1-3.48-2.1-6.12s0.78-4.759,2.34-6.36
		c1.561-1.6,3.699-2.4,6.42-2.4C628.021,109.598,629.962,110.318,631.362,111.758z M632.862,192.758h-15.96l0.84-23.04l-0.72-31.68
		l15.96-1.32l-0.96,31.439L632.862,192.758z"/>
	<path fill="#889EA8" d="M676.901,178.958l1.32,1.199l-1.561,9.48c-4.08,2.082-8.24,3.36-12.479,3.84
		c-10.8-1.119-16.2-6.398-16.2-15.84l0.6-9.96l-0.119-20.64h-7.44l-0.6-0.84l0.84-8.76h7.08v-9.24l14.52-4.68l1.08,0.96l-0.36,12.96
		h14.28l0.48,0.84l-0.721,8.76h-14.279l-0.721,26.88c0,2.562,0.48,4.38,1.44,5.46s2.56,1.62,4.8,1.62
		C671.421,180.999,674.101,180.32,676.901,178.958z"/>
	<path fill="#231F20" d="M726.342,143.078c4.319,4.8,6.479,11.721,6.479,20.76c0,9.761-2.321,17.22-6.96,22.38
		c-4.641,5.16-11.321,7.74-20.04,7.74c-8.16,0-14.399-2.4-18.72-7.2s-6.479-11.719-6.479-20.76c0-9.76,2.319-17.22,6.96-22.38
		c4.639-5.16,11.319-7.74,20.04-7.74C715.781,135.878,722.021,138.278,726.342,143.078z M698.201,150.518
		c-1.721,2.562-2.579,6.681-2.579,12.36c0,7.361,0.879,12.6,2.64,15.72c1.759,3.12,4.639,4.681,8.64,4.681
		c3.84,0,6.619-1.261,8.34-3.78c1.72-2.521,2.58-6.66,2.58-12.421c0-7.278-0.899-12.498-2.699-15.659
		c-1.801-3.16-4.662-4.74-8.58-4.74C702.701,146.678,699.921,147.959,698.201,150.518z"/>
	<path fill="#231F20" d="M789.461,181.058c0.399,0.521,1.119,0.78,2.16,0.78c0.799,0,1.839-0.159,3.119-0.479l1.2,0.959l-1.439,8.4
		c-2.562,1.68-5.48,2.68-8.761,3c-5.039-0.48-8.24-3.48-9.6-9h-1.2c-4.56,4.4-9.239,7.32-14.04,8.76c-6,0-10.601-1.38-13.8-4.14
		c-3.2-2.761-4.8-6.739-4.8-11.94l0.36-14.16l-0.601-25.2l15.48-1.32l-0.48,35.4c0,5.681,2.4,8.52,7.2,8.52
		c3.36,0,6.84-1.561,10.44-4.68v-37.92l15.119-1.32l-0.96,41.52C788.86,179.599,789.06,180.539,789.461,181.058z"/>
	<path fill="#231F20" d="M834.579,178.958l1.32,1.199l-1.561,9.48c-4.08,2.082-8.24,3.36-12.479,3.84
		c-10.8-1.119-16.2-6.398-16.2-15.84l0.6-9.96l-0.119-20.64h-7.44l-0.6-0.84l0.84-8.76h7.08v-9.24l14.52-4.68l1.08,0.96l-0.36,12.96
		h14.28l0.48,0.84l-0.721,8.76H821.02l-0.721,26.88c0,2.562,0.48,4.38,1.44,5.46s2.56,1.62,4.8,1.62
		C829.099,180.999,831.778,180.32,834.579,178.958z"/>
</g>
<g>
	<path fill="#EEC900" d="M190.878,164.796c0-15.434-12.519-27.951-27.951-27.951c-15.438,0-27.95,12.518-27.95,27.951
		c0,15.446,12.512,27.962,27.95,27.962C178.359,192.758,190.878,180.243,190.878,164.796z"/>
</g>
<g>
	<path fill="#7C4350" d="M162.927,28.211c43.725,0,82.628,20.579,107.626,52.544l-77.669,40.175
		c-8.53-5.836-18.84-9.264-29.957-9.264c-29.344,0-53.14,23.789-53.14,53.135c0,29.347,23.796,53.141,53.14,53.141
		c3.77,0,7.455-0.41,11.009-1.159l77.5,52.01c-23.843,20.314-54.735,32.603-88.509,32.603c-75.437,0-136.592-61.153-136.592-136.594
		C26.335,89.365,87.49,28.211,162.927,28.211z"/>
</g>
<g>
	<path fill="#231F20" d="M190.878,208.742l46.646,28.158c29.294-6.818,7.493-58.36,7.493-58.36l19.299-2.819l-24.069-60.995
		l-34.288,17.49C230.481,183.761,190.878,208.742,190.878,208.742z M225.031,156.4c0-4.954,4.019-8.967,8.97-8.967
		c4.955,0,8.969,4.013,8.969,8.967c0,4.95-4.014,8.967-8.969,8.967C229.05,165.367,225.031,161.35,225.031,156.4z"/>
</g>
<g>
	<path fill="#889EA8" d="M263.633,252.253c21.487-24.13,34.542-55.931,34.542-90.78c0-25.376-6.924-49.131-18.971-69.49
		l-14.813,7.107c0.256,0.402,0.498,0.812,0.738,1.221c10.924,18.441,16.692,39.595,16.692,61.162
		c0,29.542-10.804,57.907-30.416,79.935c-0.857,0.89-2.099,2.262-2.968,3.104l13.362,9.777c0.342-0.341,0.896-0.985,1.355-1.505
		l0.006,0.005c0.104-0.116,0.205-0.234,0.309-0.351c0.055-0.06,0.12-0.134,0.167-0.183L263.633,252.253z"/>
</g>
</svg>
