<svg xmlns="http://www.w3.org/2000/svg" width="874.38" height="326.446"><path fill="#231F20" d="M390.103 138.878l-2.64 12.72-1.32.6c-4.08-2.239-7.721-3.36-10.92-3.36-3.681 0-6.521 1.32-8.52 3.96-2 2.64-3 6.401-3 11.28 0 5.601 1.08 9.881 3.24 12.84 2.16 2.96 5.239 4.44 9.24 4.44 3.6 0 7.599-1 12-3l1.2.959-1.56 12.36a48.637 48.637 0 0 1-14.76 2.28c-7.68 0-13.68-2.5-18-7.5-4.32-4.999-6.48-11.979-6.48-20.94 0-9.279 2.359-16.539 7.08-21.78 4.719-5.239 11.28-7.86 19.68-7.86 5.599.001 10.519 1.002 14.76 3.001zM429.763 151.418c-1.32-1.56-3.221-2.34-5.7-2.34-3.6 0-7.401 1.68-11.4 5.04l-.24 14.04.84 24.601h-15.96l.84-23.16-.72-59.88 15.96-1.2-.6 36.36h.72c4.399-4 9.199-6.879 14.4-8.64 6.079 0 10.719 1.38 13.92 4.14 3.199 2.76 4.72 6.741 4.56 11.94l-.36 15.96.72 24.479h-16.08l.96-34.8c.079-2.799-.54-4.979-1.86-6.54zM470.263 166.958c.64 10.08 5.599 15.119 14.88 15.119 5.199 0 10.56-1.439 16.08-4.319l1.319.84-2.159 11.761c-5.601 2.399-11.201 3.6-16.801 3.6-8.88 0-15.78-2.56-20.7-7.68-4.92-5.119-7.379-12.16-7.379-21.121 0-9.039 2.479-16.159 7.44-21.36 4.959-5.199 11.68-7.8 20.16-7.8 6.96 0 12.318 1.94 16.08 5.82 3.759 3.881 5.64 9.261 5.64 16.14 0 2.16-.161 4.361-.479 6.6l-2.28 2.28-31.801.12zm12.24-20.52c-3.12 0-5.7 1.02-7.74 3.06s-3.42 4.94-4.14 8.7l20.159-.6.24-1.44c0-6.48-2.84-9.72-8.519-9.72zM552.102 138.878l-2.64 12.72-1.32.6c-4.08-2.239-7.722-3.36-10.92-3.36-3.681 0-6.521 1.32-8.521 3.96-2 2.64-3 6.401-3 11.28 0 5.601 1.08 9.881 3.24 12.84 2.16 2.96 5.239 4.44 9.24 4.44 3.6 0 7.6-1 12-3l1.2.959-1.561 12.36a48.637 48.637 0 0 1-14.76 2.28c-7.68 0-13.68-2.5-18-7.5-4.32-4.999-6.479-11.979-6.479-20.94 0-9.279 2.358-16.539 7.079-21.78 4.72-5.239 11.28-7.86 19.681-7.86 5.599.001 10.519 1.002 14.761 3.001zM575.262 192.758h-15.96l.84-23.16-.72-59.88 15.96-1.2-.96 59.64.84 24.6zm34.8-2.639v1.68c-2.72.561-7.68 1.279-14.88 2.16l-1.68-.721c-7.44-10.56-13.521-20.439-18.24-29.64v-1.08l13.92-19.8 2.88-5.76h16.801l-18.24 25.2c3.998 6.321 10.479 15.641 19.439 27.961z"/><path fill="#889EA8" d="M631.362 111.758c1.398 1.44 2.1 3.44 2.1 6 0 2.721-.761 4.881-2.279 6.48-1.521 1.601-3.601 2.4-6.24 2.4-2.641 0-4.661-.72-6.061-2.16-1.4-1.44-2.1-3.48-2.1-6.12s.78-4.759 2.34-6.36c1.561-1.6 3.699-2.4 6.42-2.4 2.479 0 4.42.72 5.82 2.16zm1.5 81h-15.96l.84-23.04-.72-31.68 15.96-1.32-.96 31.439.84 24.601zM676.901 178.958l1.32 1.199-1.561 9.48c-4.08 2.082-8.24 3.36-12.479 3.84-10.8-1.119-16.2-6.398-16.2-15.84l.6-9.96-.119-20.64h-7.44l-.6-.84.84-8.76h7.08v-9.24l14.52-4.68 1.08.96-.36 12.96h14.28l.48.84-.721 8.76h-14.279l-.721 26.88c0 2.562.48 4.38 1.44 5.46s2.56 1.62 4.8 1.62c2.56.002 5.24-.677 8.04-2.039z"/><path fill="#231F20" d="M726.342 143.078c4.319 4.8 6.479 11.721 6.479 20.76 0 9.761-2.321 17.22-6.96 22.38-4.641 5.16-11.321 7.74-20.04 7.74-8.16 0-14.399-2.4-18.72-7.2s-6.479-11.719-6.479-20.76c0-9.76 2.319-17.22 6.96-22.38 4.639-5.16 11.319-7.74 20.04-7.74 8.159 0 14.399 2.4 18.72 7.2zm-28.141 7.44c-1.721 2.562-2.579 6.681-2.579 12.36 0 7.361.879 12.6 2.64 15.72 1.759 3.12 4.639 4.681 8.64 4.681 3.84 0 6.619-1.261 8.34-3.78 1.72-2.521 2.58-6.66 2.58-12.421 0-7.278-.899-12.498-2.699-15.659-1.801-3.16-4.662-4.74-8.58-4.74-3.842-.001-6.622 1.28-8.342 3.839zM789.461 181.058c.399.521 1.119.78 2.16.78.799 0 1.839-.159 3.119-.479l1.2.959-1.439 8.4c-2.562 1.68-5.48 2.68-8.761 3-5.039-.48-8.24-3.48-9.6-9h-1.2c-4.56 4.4-9.239 7.32-14.04 8.76-6 0-10.601-1.38-13.8-4.14-3.2-2.761-4.8-6.739-4.8-11.94l.36-14.16-.601-25.2 15.48-1.32-.48 35.4c0 5.681 2.4 8.52 7.2 8.52 3.36 0 6.84-1.561 10.44-4.68v-37.92l15.119-1.32-.96 41.52c.002 1.361.202 2.301.603 2.82zM834.579 178.958l1.32 1.199-1.561 9.48c-4.08 2.082-8.24 3.36-12.479 3.84-10.8-1.119-16.2-6.398-16.2-15.84l.6-9.96-.119-20.64h-7.44l-.6-.84.84-8.76h7.08v-9.24l14.52-4.68 1.08.96-.36 12.96h14.28l.48.84-.721 8.76H821.02l-.721 26.88c0 2.562.48 4.38 1.44 5.46s2.56 1.62 4.8 1.62c2.56.002 5.239-.677 8.04-2.039z"/><g><path fill="#EEC900" d="M190.878 164.796c0-15.434-12.519-27.951-27.951-27.951-15.438 0-27.95 12.518-27.95 27.951 0 15.446 12.512 27.962 27.95 27.962 15.432 0 27.951-12.515 27.951-27.962z"/></g><g><path fill="#7C4350" d="M162.927 28.211c43.725 0 82.628 20.579 107.626 52.544l-77.669 40.175a52.87 52.87 0 0 0-29.957-9.264c-29.344 0-53.14 23.789-53.14 53.135 0 29.347 23.796 53.141 53.14 53.141 3.77 0 7.455-.41 11.009-1.159l77.5 52.01c-23.843 20.314-54.735 32.603-88.509 32.603-75.437 0-136.592-61.153-136.592-136.594 0-75.437 61.155-136.591 136.592-136.591z"/></g><g><path fill="#231F20" d="M190.878 208.742l46.646 28.158c29.294-6.818 7.493-58.36 7.493-58.36l19.299-2.819-24.069-60.995-34.288 17.49c24.522 51.545-15.081 76.526-15.081 76.526zm34.153-52.342c0-4.954 4.019-8.967 8.97-8.967a8.966 8.966 0 0 1 8.969 8.967 8.968 8.968 0 0 1-8.969 8.967c-4.951 0-8.97-4.017-8.97-8.967z"/></g><g><path fill="#889EA8" d="M263.633 252.253c21.487-24.13 34.542-55.931 34.542-90.78 0-25.376-6.924-49.131-18.971-69.49l-14.813 7.107c.256.402.498.812.738 1.221 10.924 18.441 16.692 39.595 16.692 61.162 0 29.542-10.804 57.907-30.416 79.935-.857.89-2.099 2.262-2.968 3.104l13.362 9.777c.342-.341.896-.985 1.355-1.505l.006.005c.104-.116.205-.234.309-.351.055-.06.12-.134.167-.183l-.003-.002z"/></g></svg>